            <svg width="125" height="126" viewBox="0 0 125 126" fill="none"
                xmlns="http://www.w3.org/2000/svg">
                <g clip-path="url(#clip0_63_154)">
                    <path
                        d="M101.563 10.7063L114.27 10.7063C120.178 10.7063 125 15.5281 125 21.4485L125 78.1013C125 84.0217 120.178 88.8313 114.27 88.8313L98.9624 88.8313C97.5464 88.8313 96.1914 88.2576 95.2026 87.2322C94.2261 86.2068 93.7012 84.8396 93.75 83.4236L96.3501 15.7112C96.46 12.928 98.7671 10.7063 101.563 10.7063ZM114.27 78.4187C114.441 78.4187 114.587 78.2722 114.587 78.1013L114.587 21.4485C114.587 21.2776 114.441 21.1311 114.27 21.1311L106.58 21.1311L104.37 78.4187L114.27 78.4187Z"
                        fill="#EB3B5A" />
                    <path
                        d="M26.0747 10.7063L91.3457 10.7063L88.3428 88.8313L73.9751 88.8313L65.186 113.465C62.6592 120.545 55.9087 125.294 48.4014 125.294C43.2256 125.294 38.3184 123.048 34.937 119.141C31.5557 115.235 30.0298 110.059 30.7622 104.945L33.0693 88.8313L15.6621 88.8313C7.03174 88.8313 0.0126976 81.8122 0.0126984 73.1819L0.134769 72.0466L10.4375 25.7332C10.7549 17.3957 17.6519 10.7063 26.0747 10.7063ZM80.5303 21.1311L26.0747 21.1311C23.1939 21.1311 20.8379 23.4748 20.8379 26.3679L20.7158 27.5032L10.4375 73.658C10.6816 76.3191 12.9277 78.4187 15.6499 78.4187L45.0689 78.4187L41.0649 106.422C40.7598 108.582 41.3701 110.67 42.7983 112.318C44.2266 113.966 46.2163 114.869 48.4014 114.869C51.5264 114.869 54.3218 112.891 55.3716 109.949L66.6387 78.4187L78.3208 78.4187L80.5303 21.1311Z"
                        fill="#EB3B5A" />
                </g>
                <defs>
                    <clipPath id="clip0_63_154">
                        <rect width="125" height="125" fill="white" transform="translate(125 125.294) rotate(-180)" />
                    </clipPath>
                </defs>
            </svg>