            <svg width="125" height="126" viewBox="0 0 125 126" fill="none"
                xmlns="http://www.w3.org/2000/svg">
                <g clip-path="url(#clip0_63_140)">
                    <path
                        d="M23.4375 115.087H10.73C4.82178 115.087 0 110.266 0 104.345V47.6924C0 41.772 4.82178 36.9624 10.73 36.9624H26.0376C27.4536 36.9624 28.8086 37.5361 29.7974 38.5615C30.7739 39.5869 31.2988 40.9541 31.25 42.3701L28.6499 110.083C28.54 112.866 26.2329 115.087 23.4375 115.087ZM10.73 47.375C10.5591 47.375 10.4126 47.5215 10.4126 47.6924V104.345C10.4126 104.516 10.5591 104.663 10.73 104.663H18.4204L20.6299 47.375H10.73Z"
                        fill="#24AB66" />
                    <path
                        d="M98.9253 115.087H33.6543L36.6572 36.9624H51.0249L59.814 12.3286C62.3408 5.24854 69.0913 0.5 76.5986 0.5C81.7744 0.5 86.6816 2.74609 90.063 6.65234C93.4443 10.5586 94.9702 15.7344 94.2378 20.8491L91.9307 36.9624H109.338C117.968 36.9624 124.987 43.9814 124.987 52.6118L124.865 53.7471L114.562 100.061C114.245 108.398 107.348 115.087 98.9253 115.087ZM44.4697 104.663H98.9253C101.806 104.663 104.162 102.319 104.162 99.4258L104.284 98.2905L114.562 52.1357C114.318 49.4746 112.072 47.375 109.35 47.375H79.9311L83.9351 19.3721C84.2402 17.2114 83.6299 15.124 82.2017 13.4761C80.7734 11.8281 78.7837 10.9248 76.5986 10.9248C73.4736 10.9248 70.6782 12.9023 69.6284 15.8442L58.3613 47.375H46.6792L44.4697 104.663Z"
                        fill="#24AB66" />
                </g>
                <defs>
                    <clipPath id="clip0_63_140">
                        <rect width="125" height="125" fill="white" transform="translate(0 0.5)" />
                    </clipPath>
                </defs>
            </svg>