            <svg width="121" height="120" viewBox="0 0 121 120" fill="none"
                xmlns="http://www.w3.org/2000/svg">
                <path
                    d="M60.4961 77.144C46.7148 77.144 35.5 66.0226 35.5 52.3562C35.5 38.6898 46.7148 27.5684 60.4961 27.5684C74.2773 27.5684 85.4922 38.6898 85.4922 52.3562C85.4922 66.0226 74.2773 77.144 60.4961 77.144ZM60.4961 37.4812C52.2227 37.4812 45.4961 44.1517 45.4961 52.3562C45.4961 60.5607 52.2227 67.2312 60.4961 67.2312C68.7695 67.2312 75.4961 60.5607 75.4961 52.3562C75.4961 44.1517 68.7695 37.4812 60.4961 37.4812Z"
                    fill="#3688FF" />
                <path
                    d="M98.5823 100.572C96.7424 100.572 94.9729 99.5611 94.1057 97.8179C87.719 85.0696 74.8401 77.144 60.4963 77.144C46.1526 77.144 33.2737 85.058 26.887 97.8179C25.6565 100.27 22.6565 101.269 20.1838 100.049C17.7112 98.829 16.7034 95.854 17.9338 93.4019C26.0198 77.2602 42.3323 67.2312 60.4963 67.2312C78.6604 67.2312 94.9729 77.2602 103.059 93.4019C104.289 95.854 103.281 98.829 100.809 100.049C100.094 100.398 99.3323 100.572 98.5823 100.572Z"
                    fill="#3688FF" />
                <path
                    d="M60.4961 116.818C28.7852 116.818 2.99219 91.2404 2.99219 59.7937C2.99219 28.347 28.7852 2.76898 60.4961 2.76898C92.207 2.76898 118 28.347 118 59.7937C118 91.2404 92.207 116.818 60.4961 116.818ZM60.4961 12.6934C34.3047 12.6934 13 33.8205 13 59.7937C13 85.7668 34.3047 106.894 60.4961 106.894C86.6875 106.894 107.992 85.7668 107.992 59.7937C107.992 33.8205 86.6875 12.6934 60.4961 12.6934Z"
                    fill="#3688FF" />
            </svg>