<svg width="90" height="90" viewBox="0 0 90 90" fill="none" xmlns="http://www.w3.org/2000/svg">
<g clip-path="url(#clip0_10_242)">
<path d="M67.2121 71.1403C65.1644 71.1403 63.5072 69.4831 63.5072 67.4354C63.5072 65.3878 65.1644 63.7306 67.2121 63.7306C75.3766 63.7306 82.0228 57.0844 82.0228 48.9198C82.0228 41.1457 75.9406 34.6644 68.1838 34.1612L65.9974 34.031L65.069 32.0614C61.4075 24.3134 53.5293 19.307 45.0003 19.307C36.4713 19.307 28.5931 24.3134 24.9316 32.0614L24.0032 34.031L21.8254 34.1698C14.06 34.6731 7.98648 41.1544 7.98648 48.9285C7.98648 57.0931 14.6327 63.7392 22.7972 63.7392C24.8449 63.7392 26.5021 65.3964 26.5021 67.4441C26.5021 69.4917 24.8449 71.1489 22.7972 71.1489C10.546 71.1489 0.585449 61.1884 0.585449 48.9372C0.585449 37.9962 8.61119 28.7644 19.2138 27.0378C24.4197 17.78 34.3196 11.906 45.0003 11.906C55.681 11.906 65.5809 17.78 70.7955 27.0204C81.3981 28.747 89.4238 37.9875 89.4238 48.9285C89.4238 61.171 79.4632 71.1403 67.2121 71.1403Z" fill="white"/>
<path d="M56.1059 69.2835C55.1602 69.2835 54.2144 68.9191 53.4856 68.1989L45 59.7133L36.5144 68.1989C35.0741 69.6479 32.7228 69.6479 31.2825 68.1989C29.8336 66.75 29.8336 64.4073 31.2825 62.967L42.3884 51.8611C43.8287 50.4122 46.18 50.4122 47.6203 51.8611L58.7262 62.967C60.1752 64.416 60.1752 66.7586 58.7262 68.1989C57.9974 68.9278 57.0516 69.2835 56.1059 69.2835Z" fill="white"/>
<path d="M45.0003 84.0943C42.9526 84.0943 41.2954 82.4371 41.2954 80.3894V54.4815C41.2954 52.4338 42.9526 50.7766 45.0003 50.7766C47.0479 50.7766 48.7051 52.4338 48.7051 54.4815V80.3981C48.7051 82.4371 47.0479 84.0943 45.0003 84.0943Z" fill="white"/>
</g>
<defs>
<clipPath id="clip0_10_242">
<rect width="88.8471" height="88.8471" fill="white" transform="translate(0.57666 0.800049)"/>
</clipPath>
</defs>
</svg>